<svg width="32" height="32" fill="none" xmlns="http://www.w3.org/2000/svg"><path d="M26 1v8h-8" stroke="#000" stroke-width="2" stroke-linecap="round" stroke-linejoin="round"/><path d="M27.315 19.997a12 12 0 1 1-2.827-12.48" stroke="#000" stroke-width="2" stroke-linecap="round" stroke-linejoin="round"/><path d="M14.93 20H9.44v-1.155l1.972-1.992c.583-.598.965-1.012 1.144-1.241.179-.233.308-.448.386-.645.08-.197.118-.4.118-.612 0-.315-.087-.55-.263-.704-.171-.154-.402-.23-.693-.23-.304 0-.6.07-.886.209a4.57 4.57 0 0 0-.897.596l-.902-1.069c.387-.33.707-.562.961-.698.255-.136.532-.24.833-.311.3-.076.637-.113 1.01-.113.49 0 .923.09 1.3.268.375.18.667.43.875.752.208.322.312.691.312 1.107 0 .361-.065.701-.194 1.02-.125.315-.322.64-.59.972-.266.333-.735.808-1.408 1.424l-1.01.95v.076h3.422V20Zm6.461-1.627h-.945V20h-1.622v-1.627h-3.352v-1.155l3.443-5.07h1.53v4.936h.946v1.289Zm-2.567-1.29v-1.331c0-.223.009-.545.027-.967.018-.423.032-.668.043-.736h-.043a6.14 6.14 0 0 1-.478.86l-1.44 2.175h1.89Z" fill="#000"/></svg>