<svg width="24" height="24" fill="none" xmlns="http://www.w3.org/2000/svg"><path d="M19 1.5v5h-5" stroke="#E3128F" stroke-width="1.5" stroke-linecap="round" stroke-linejoin="round"/><path d="M20.49 15a9 9 0 1 1-2.12-9.36" stroke="#E3128F" stroke-width="1.5" stroke-linecap="round" stroke-linejoin="round"/><path d="M11.313 15H7.32v-.84l1.434-1.45c.424-.434.702-.735.832-.901.13-.17.224-.326.281-.47.057-.142.086-.29.086-.444 0-.23-.064-.4-.191-.512-.125-.112-.293-.168-.504-.168-.222 0-.436.05-.645.152a3.328 3.328 0 0 0-.652.434l-.656-.778c.28-.24.514-.408.699-.507.185-.1.387-.175.605-.227.22-.055.464-.082.735-.082.357 0 .672.065.945.195.274.13.486.313.637.547.15.235.226.503.226.805 0 .263-.046.51-.14.742-.091.23-.235.465-.43.707-.193.242-.534.587-1.023 1.035l-.735.692v.054h2.489V15Zm4.699-1.184h-.688V15h-1.18v-1.184h-2.437v-.84l2.504-3.687h1.113v3.59h.688v.937Zm-1.867-.937v-.969c0-.161.006-.396.02-.703.012-.307.023-.486.03-.535h-.03a4.364 4.364 0 0 1-.349.625l-1.046 1.582h1.375Z" fill="#E3128F"/></svg>