<svg width="32" height="32" fill="none" xmlns="http://www.w3.org/2000/svg"><g clip-path="url(#a)"><path fill-rule="evenodd" clip-rule="evenodd" d="M2.7 4.428a2.75 2.75 0 0 0-2.75 2.75v13.794a2.75 2.75 0 0 0 2.75 2.75h1.113c.29 1.623 1.738 2.857 3.48 2.857 1.775 0 3.245-1.283 3.494-2.955h11.439c.249 1.672 1.719 2.955 3.495 2.955 1.773 0 3.242-1.28 3.494-2.947h.083a2.75 2.75 0 0 0 2.74-2.75v-3.616a2.75 2.75 0 0 0-.477-1.547l-3.296-4.84a2.75 2.75 0 0 0-2.273-1.203h-5.946V7.178a2.75 2.75 0 0 0-2.75-2.75H2.7Zm26.406 17.704h.187a1.25 1.25 0 0 0 1.245-1.25v-3.604h-6.31a2.75 2.75 0 0 1-2.75-2.75v-3.352h-1.432v10.948h2.292c.437-1.423 1.786-2.46 3.383-2.46 1.6 0 2.95 1.04 3.385 2.468ZM7.292 19.663c-1.633 0-3.007 1.085-3.411 2.56H2.7a1.25 1.25 0 0 1-1.25-1.25V18.95h17.095v3.173h-7.87c-.438-1.423-1.787-2.46-3.384-2.46Zm11.254-2.212V7.178c0-.69-.56-1.25-1.25-1.25H2.7c-.69 0-1.25.56-1.25 1.25V17.45h17.096Zm7.446-6.275h-3.014v3.352c0 .69.56 1.25 1.25 1.25h5.559l-2.762-4.056a1.25 1.25 0 0 0-1.033-.546Zm-18.7 13.903c1.153 0 2.032-.906 2.032-1.958 0-1.051-.88-1.958-2.032-1.958-1.152 0-2.032.907-2.032 1.958 0 1.052.88 1.958 2.032 1.958Zm20.46-1.958c0 1.052-.879 1.958-2.031 1.958-1.153 0-2.032-.906-2.032-1.958 0-1.051.88-1.958 2.032-1.958 1.152 0 2.032.907 2.032 1.958Z" fill="#000"/></g><defs><clipPath id="a"><path fill="#fff" d="M0 0h32v32H0z"/></clipPath></defs></svg>