<svg width="32" height="32" viewBox="0 0 32 32" fill="none" xmlns="http://www.w3.org/2000/svg">
<g clip-path="url(#clip0)">
<path fill-rule="evenodd" clip-rule="evenodd" d="M2.70038 4.42773C1.1816 4.42773 -0.0496216 5.65895 -0.0496216 7.17773V20.9723C-0.0496216 22.491 1.1816 23.7223 2.70038 23.7223H3.81337C4.10393 25.3455 5.5509 26.5792 7.29218 26.5792C9.06833 26.5792 10.5383 25.2956 10.7871 23.6243H22.2259C22.4747 25.2956 23.9446 26.5792 25.7208 26.5792C27.4943 26.5792 28.9626 25.2994 29.2145 23.6316L29.298 23.6313C30.813 23.626 32.0383 22.3963 32.0383 20.8813V17.2664C32.0383 16.7143 31.8721 16.1749 31.5614 15.7186L28.2652 10.8781C27.7531 10.126 26.9021 9.67595 25.9922 9.67595H20.0462V7.17773C20.0462 5.65895 18.815 4.42773 17.2962 4.42773H2.70038ZM29.1061 22.132L29.2927 22.1313C29.9814 22.1289 30.5383 21.57 30.5383 20.8813V17.2777H24.228C22.7092 17.2777 21.478 16.0465 21.478 14.5277V11.1759H20.0462V22.1243H22.3378C22.775 20.7006 24.1242 19.6634 25.7208 19.6634C27.3203 19.6634 28.6714 20.7043 29.1061 22.132ZM7.29218 19.6634C5.65917 19.6634 4.285 20.7484 3.88077 22.2223H2.70038C2.01002 22.2223 1.45038 21.6626 1.45038 20.9723V18.951H18.5462V22.1243H10.6751C10.238 20.7006 8.88879 19.6634 7.29218 19.6634ZM18.5462 17.451V7.17773C18.5462 6.48738 17.9866 5.92773 17.2962 5.92773H2.70038C2.01002 5.92773 1.45038 6.48738 1.45038 7.17773V17.451H18.5462ZM25.9922 11.1759H22.978V14.5277C22.978 15.2181 23.5376 15.7777 24.228 15.7777H29.7869L27.0254 11.7224C26.7926 11.3805 26.4058 11.1759 25.9922 11.1759ZM7.29218 25.0792C8.44455 25.0792 9.32415 24.1728 9.32415 23.1213C9.32415 22.0698 8.44455 21.1634 7.29218 21.1634C6.13981 21.1634 5.26021 22.0698 5.26021 23.1213C5.26021 24.1728 6.13981 25.0792 7.29218 25.0792ZM27.7527 23.1213C27.7527 24.1728 26.8731 25.0792 25.7208 25.0792C24.5684 25.0792 23.6888 24.1728 23.6888 23.1213C23.6888 22.0698 24.5684 21.1634 25.7208 21.1634C26.8731 21.1634 27.7527 22.0698 27.7527 23.1213Z" fill="black"/>
</g>
<defs>
<clipPath id="clip0">
<rect width="32" height="32" fill="white"/>
</clipPath>
</defs>
</svg>
