<?xml version="1.0" encoding="utf-8"?>
<!-- Generator: Adobe Illustrator 23.1.0, SVG Export Plug-In . SVG Version: 6.00 Build 0)  -->
<svg version="1.1" id="Слой_1" xmlns="http://www.w3.org/2000/svg" xmlns:xlink="http://www.w3.org/1999/xlink" x="0px" y="0px"
	 viewBox="0 0 35 35" style="enable-background:new 0 0 35 35;" xml:space="preserve">
<style type="text/css">
	.st0{fill:#2B2A29;stroke:#000000;}
</style>
<path class="st0" d="M1.7,5h31.4C33.6,5,34,5.5,34,6.1l0,0c0,0.6-0.4,1.1-0.9,1.1H1.7c-0.5,0-0.9-0.5-0.9-1.1l0,0
	C0.9,5.5,1.3,5,1.7,5z"/>
<path class="st0" d="M1.7,18.4h31.4c0.5,0,0.9,0.5,0.9,1.1l0,0c0,0.6-0.4,1.1-0.9,1.1H1.7c-0.5,0-0.9-0.5-0.9-1.1l0,0
	C0.9,18.9,1.3,18.4,1.7,18.4z"/>
<path class="st0" d="M1.7,31.8h31.4c0.5,0,0.9,0.5,0.9,1.1l0,0c0,0.6-0.4,1.1-0.9,1.1H1.7c-0.5,0-0.9-0.5-0.9-1.1l0,0
	C0.9,32.3,1.3,31.8,1.7,31.8z"/>
</svg>
