<svg width="32" height="32" viewBox="0 0 32 32" fill="none" xmlns="http://www.w3.org/2000/svg">
<path d="M26 1V9H18" stroke="black" stroke-width="2" stroke-linecap="round" stroke-linejoin="round"/>
<path d="M27.3146 19.9974C26.4479 22.4506 24.8074 24.5557 22.6402 25.9954C20.473 27.4351 17.8966 28.1315 15.2992 27.9795C12.7018 27.8276 10.2242 26.8356 8.23964 25.153C6.25511 23.4704 4.8712 21.1884 4.29645 18.6508C3.72171 16.1133 3.98727 13.4577 5.05311 11.0842C6.11896 8.71068 7.92735 6.7479 10.2058 5.4916C12.4842 4.2353 15.1092 3.75355 17.6852 4.11894C20.2613 4.48433 22.6488 5.67707 24.488 7.51741" stroke="black" stroke-width="2" stroke-linecap="round" stroke-linejoin="round"/>
<path d="M14.9297 20H9.44043V18.8452L11.4116 16.8525C11.9953 16.2546 12.3766 15.841 12.5557 15.6118C12.7347 15.3791 12.8636 15.1642 12.9424 14.9673C13.0212 14.7703 13.0605 14.5662 13.0605 14.355C13.0605 14.0399 12.9728 13.8053 12.7974 13.6514C12.6255 13.4974 12.3945 13.4204 12.1045 13.4204C11.8001 13.4204 11.5047 13.4902 11.2183 13.6299C10.9318 13.7695 10.6328 13.9683 10.3213 14.2261L9.41895 13.1572C9.80566 12.8278 10.1261 12.5951 10.3804 12.459C10.6346 12.3229 10.9121 12.2191 11.2129 12.1475C11.5137 12.0723 11.8503 12.0347 12.2227 12.0347C12.7132 12.0347 13.1465 12.1242 13.5225 12.3032C13.8984 12.4823 14.1903 12.7329 14.3979 13.0552C14.6056 13.3774 14.7095 13.7463 14.7095 14.1616C14.7095 14.5233 14.645 14.8634 14.5161 15.1821C14.3908 15.4972 14.1938 15.8213 13.9253 16.1543C13.6603 16.4873 13.1912 16.9618 12.5181 17.5776L11.5083 18.5283V18.6035H14.9297V20ZM21.3911 18.3726H20.4458V20H18.8237V18.3726H15.4722V17.2178L18.915 12.1475H20.4458V17.0835H21.3911V18.3726ZM18.8237 17.0835V15.7515C18.8237 15.5295 18.8327 15.2072 18.8506 14.7847C18.8685 14.3621 18.8828 14.1169 18.8936 14.0488H18.8506C18.7181 14.3424 18.5588 14.6289 18.3726 14.9082L16.9331 17.0835H18.8237Z" fill="black"/>
</svg>
