<svg width="24" height="24" viewBox="0 0 24 24" fill="none" xmlns="http://www.w3.org/2000/svg">
<path d="M19 1.5V6.5H14" stroke="#E3128F" stroke-width="1.5" stroke-linecap="round" stroke-linejoin="round"/>
<path d="M20.49 15C19.84 16.8399 18.6096 18.4187 16.9842 19.4985C15.3588 20.5783 13.4265 21.1006 11.4784 20.9866C9.53038 20.8726 7.67216 20.1286 6.18376 18.8667C4.69536 17.6047 3.65743 15.8932 3.22637 13.9901C2.79531 12.0869 2.99448 10.0952 3.79386 8.31508C4.59325 6.53496 5.94954 5.06288 7.65836 4.12065C9.36717 3.17843 11.3359 2.81711 13.268 3.09116C15.2 3.3652 16.9906 4.25975 18.37 5.64001" stroke="#E3128F" stroke-width="1.5" stroke-linecap="round" stroke-linejoin="round"/>
<path d="M11.3125 15H7.32031V14.1602L8.75391 12.7109C9.17839 12.276 9.45573 11.9753 9.58594 11.8086C9.71615 11.6393 9.8099 11.4831 9.86719 11.3398C9.92448 11.1966 9.95312 11.0482 9.95312 10.8945C9.95312 10.6654 9.88932 10.4948 9.76172 10.3828C9.63672 10.2708 9.46875 10.2148 9.25781 10.2148C9.03646 10.2148 8.82161 10.2656 8.61328 10.3672C8.40495 10.4688 8.1875 10.6133 7.96094 10.8008L7.30469 10.0234C7.58594 9.78385 7.81901 9.61458 8.00391 9.51562C8.1888 9.41667 8.39062 9.34115 8.60938 9.28906C8.82812 9.23438 9.07292 9.20703 9.34375 9.20703C9.70052 9.20703 10.0156 9.27214 10.2891 9.40234C10.5625 9.53255 10.7747 9.71484 10.9258 9.94922C11.0768 10.1836 11.1523 10.4518 11.1523 10.7539C11.1523 11.0169 11.1055 11.2643 11.0117 11.4961C10.9206 11.7253 10.7773 11.9609 10.582 12.2031C10.3893 12.4453 10.0482 12.7904 9.55859 13.2383L8.82422 13.9297V13.9844H11.3125V15ZM16.0117 13.8164H15.3242V15H14.1445V13.8164H11.707V12.9766L14.2109 9.28906H15.3242V12.8789H16.0117V13.8164ZM14.1445 12.8789V11.9102C14.1445 11.7487 14.151 11.5143 14.1641 11.207C14.1771 10.8997 14.1875 10.7214 14.1953 10.6719H14.1641C14.0677 10.8854 13.9518 11.0938 13.8164 11.2969L12.7695 12.8789H14.1445Z" fill="#E3128F"/>
</svg>
